<svg width="29" height="27" viewBox="0 0 29 27" fill="none" xmlns="http://www.w3.org/2000/svg">
<g id="search_FILL0_wght400_GRAD0_opsz24 1">
<path id="Vector" d="M23.3822 23.625L16.183 16.5375C15.6116 16.9875 14.9545 17.3438 14.2118 17.6062C13.469 17.8687 12.6786 18 11.8406 18C9.76462 18 8.00767 17.2922 6.56972 15.8766C5.13178 14.4609 4.41281 12.7312 4.41281 10.6875C4.41281 8.64375 5.13178 6.91406 6.56972 5.49844C8.00767 4.08281 9.76462 3.375 11.8406 3.375C13.9166 3.375 15.6735 4.08281 17.1115 5.49844C18.5494 6.91406 19.2684 8.64375 19.2684 10.6875C19.2684 11.5125 19.135 12.2906 18.8684 13.0219C18.6018 13.7531 18.2399 14.4 17.7828 14.9625L24.982 22.05L23.3822 23.625ZM11.8406 15.75C13.269 15.75 14.4832 15.2578 15.4831 14.2734C16.483 13.2891 16.9829 12.0938 16.9829 10.6875C16.9829 9.28125 16.483 8.08594 15.4831 7.10156C14.4832 6.11719 13.269 5.625 11.8406 5.625C10.4122 5.625 9.19801 6.11719 8.19812 7.10156C7.19823 8.08594 6.69828 9.28125 6.69828 10.6875C6.69828 12.0938 7.19823 13.2891 8.19812 14.2734C9.19801 15.2578 10.4122 15.75 11.8406 15.75Z" fill="black"/>
</g>
</svg>
